<svg xmlns="http://www.w3.org/2000/svg" viewBox="0 13.940000534057617 106.79000091552734 49.55999755859375" data-asc="0.9931640625" width="106.79000091552734" height="49.55999755859375"><defs/><g fill="#f0f0f0"><g transform="translate(0, 0)"><path d="M11.50 48.32Q13.48 48.19 15.30 47.28Q17.11 46.36 18.21 44.60Q19.36 42.77 19.36 40.19L19.36 39.92Q19.29 37.16 17.26 35.69Q16.33 35.01 15.01 34.62Q12.43 33.91 9.73 33.62Q7.03 33.33 4.61 32.15Q2.44 31.13 1.37 29.14Q0.29 27.15 0.29 24.80Q0.29 20.21 3.49 17.31Q6.76 14.28 11.74 14.28L12.48 14.28Q17.92 14.53 21.73 16.99L21.14 22.12Q21.09 22.56 20.68 22.56L20.58 22.56Q20.26 22.53 19.97 21.88Q18.92 19.68 16.92 18.13Q14.92 16.58 12.60 16.48L12.21 16.48Q9.96 16.48 8.20 17.29Q7.06 17.87 6.37 18.58Q5.74 19.26 5.25 20.26Q4.86 21.07 4.64 22.14Q4.47 22.92 4.47 23.63Q4.47 24.58 4.76 25.39Q5.27 27.03 6.52 27.91Q7.47 28.61 8.59 28.88Q9.20 29.05 10.08 29.21Q10.96 29.37 11.91 29.52Q13.31 29.74 14.86 29.97Q16.41 30.20 17.87 30.64Q20.31 31.42 21.51 32.71Q22.39 33.72 22.95 34.91Q23.61 36.52 23.61 38.45Q23.61 43.68 19.36 47.14Q17.16 48.95 14.50 49.80Q12.35 50.49 9.91 50.59Q9.38 50.61 8.86 50.61Q5.47 50.61 2.37 49.66L0.05 43.21Q0 43.09 0 42.97Q0 42.72 0.17 42.48Q0.37 42.16 0.68 42.16Q0.98 42.24 1.29 42.87Q2.86 46.26 5.22 47.41Q7.18 48.36 10.18 48.36Q10.82 48.36 11.50 48.32ZM50.07 46.09Q50.07 47.68 51.29 48.11Q52.51 48.54 52.51 49.15Q52.51 49.66 52.00 49.66L46.07 49.66Q45.65 49.66 45.65 49.34L45.65 47.75Q44.31 48.27 43.27 48.67Q42.24 49.07 41.36 49.37Q39.09 50.12 36.69 50.37Q36.35 50.39 36.04 50.39Q34.01 50.39 32.18 49.02Q29.20 46.78 29.20 39.28L29.20 30.47Q29.20 28.93 27.98 28.49Q26.76 28.05 26.76 27.42Q26.76 26.90 27.27 26.90Q28.88 26.83 30.46 26.40Q32.03 25.98 33.62 25.44L33.62 39.28Q33.62 44.65 35.84 46.80Q37.26 48.19 39.31 48.19Q40.48 48.19 41.87 47.73Q42.38 47.56 43.21 47.24Q44.04 46.92 44.63 46.70Q44.75 46.66 45.03 46.56Q45.31 46.46 45.65 46.31L45.65 30.47Q45.65 28.93 44.43 28.49Q43.21 28.05 43.21 27.42Q43.21 26.90 43.73 26.90Q45.34 26.83 46.91 26.40Q48.49 25.98 50.07 25.44L50.07 46.09ZM61.08 15.48Q63.77 15.48 63.77 18.16Q63.77 20.87 61.08 20.87Q58.42 20.87 58.42 18.16Q58.42 15.48 61.08 15.48M63.31 49.37Q63.28 54.17 62.65 56.52Q62.01 58.86 60.42 60.52Q58.15 62.84 55.47 63.50L55.47 62.28Q57.79 60.89 58.57 58.37Q58.86 57.37 58.87 55.57Q58.89 53.76 58.89 49.51L58.89 30.47Q58.89 28.93 57.67 28.49Q56.45 28.05 56.45 27.42Q56.45 26.90 56.96 26.90Q58.57 26.83 60.14 26.40Q61.72 25.98 63.31 25.44L63.31 49.37ZM86.28 47.53L79.57 50Q78.78 50.27 78.27 50.27L77.27 50.27Q73.80 50.10 71.29 47.44Q68.77 44.78 68.43 40.89Q68.33 39.87 68.33 38.92Q68.33 37.65 68.51 36.45Q68.80 34.38 70.12 32.30Q70.75 31.23 72.29 30.05Q72.83 29.69 73.49 29.39Q75.44 28.66 77.40 27.93Q79.37 27.20 81.35 26.46Q81.76 26.32 82.13 26.32L82.25 26.32Q83.81 26.39 86.04 27.10Q86.23 27.17 86.28 27.20Q86.82 27.42 87.60 27.69Q87.92 27.78 88.18 27.78Q88.57 27.78 88.87 27.56Q89.38 27.12 89.60 26.83Q89.72 26.66 89.92 26.66Q90.04 26.66 90.16 26.71Q90.70 26.90 90.70 27.20L90.70 46.09Q90.70 47.68 91.92 48.11Q93.14 48.54 93.14 49.15Q93.14 49.66 92.63 49.66L86.69 49.66Q86.28 49.66 86.28 49.34L86.28 47.53M86.28 30.88Q85.28 29.96 83.64 29.16Q82.01 28.37 80.74 28.32L80.64 28.32Q80.15 28.32 79.66 28.52Q78.78 28.83 77.92 29.16Q77.05 29.49 76.17 29.81Q75.56 30.05 75.20 30.44Q73.68 32.06 73.17 34.35Q72.75 36.08 72.75 37.79Q72.75 38.33 72.80 38.89Q73.07 42.41 74.71 44.60Q76.34 46.88 78.81 47.56Q79.74 47.83 80.69 47.83Q80.98 47.83 81.30 47.80Q81.84 47.75 82.57 47.49Q83.13 47.29 84.33 46.84Q85.52 46.39 86.28 46.09L86.28 30.88ZM104.35 46.09Q104.35 47.68 105.57 48.11Q106.79 48.54 106.79 49.15Q106.79 49.66 106.30 49.66L98.02 49.66Q97.51 49.66 97.51 49.15Q97.51 48.54 98.73 48.11Q99.95 47.68 99.95 46.09L99.95 18.97Q99.95 17.41 98.73 16.97Q97.51 16.53 97.51 15.89Q97.51 15.38 98.02 15.38Q99.63 15.31 101.21 14.89Q102.78 14.48 104.35 13.94L104.35 46.09Z"/></g></g></svg>