<svg xmlns="http://www.w3.org/2000/svg" viewBox="0 9 117.30000305175781 50" data-asc="0.92" width="117.30000305175781" height="50"><defs/><g fill="#000000"><g transform="translate(0, 0)"><path d="M10.20 18.75Q10.20 20.60 11.30 21.88Q12.40 23.15 14.13 24.13Q15.85 25.10 17.80 26.07Q19.75 27.05 21.48 28.30Q23.20 29.55 24.30 31.35Q25.40 33.15 25.40 35.80Q25.40 38.95 23.68 41.38Q21.95 43.80 18.82 45.15Q15.70 46.50 11.50 46.50Q8.60 46.50 6.50 45.88Q4.40 45.25 2.90 44.45L1.85 45.95L0.10 45.95Q0.25 44.25 0.25 42.13Q0.25 40 0.20 37.92Q0.15 35.85 0 34.30L1.70 33.80Q2.85 37.85 4.47 40.20Q6.10 42.55 8.00 43.52Q9.90 44.50 12.00 44.50Q13.85 44.50 15.28 43.90Q16.70 43.30 17.52 42.15Q18.35 41 18.35 39.40Q18.35 37.50 17.25 36.17Q16.15 34.85 14.43 33.80Q12.70 32.75 10.75 31.73Q8.80 30.70 7.08 29.43Q5.35 28.15 4.25 26.35Q3.15 24.55 3.15 22Q3.15 19.05 4.75 16.80Q6.35 14.55 9.28 13.27Q12.20 12 16.15 12Q18.60 12 20.55 12.52Q22.50 13.05 24.05 14.05L25.10 12.50L26.85 12.50Q26.70 15.05 26.75 17.95Q26.80 20.85 27 23.20L25.30 23.70Q24.60 20.85 23.50 18.97Q22.40 17.10 21.10 16Q19.80 14.90 18.43 14.45Q17.05 14 15.75 14Q13.35 14 11.78 15.27Q10.20 16.55 10.20 18.75ZM55.70 41.60L57.20 42.50Q56.05 44.80 54.50 45.65Q52.95 46.50 51.05 46.50Q48.70 46.50 47.15 45.35Q45.60 44.20 45.30 41.95Q43.75 44.35 41.67 45.42Q39.60 46.50 37.15 46.50Q33.25 46.50 31.95 44.33Q30.65 42.15 31.15 38.50L33.10 24.25L32.60 23.75L29.60 23.75L29.85 22Q32.20 22 34.98 21.92Q37.75 21.85 39.75 21.50L40.25 22L37.95 38.50Q37.70 40.35 37.75 41.52Q37.80 42.70 38.25 43.23Q38.70 43.75 39.65 43.75Q41.50 43.75 43.42 41.52Q45.35 39.30 46 34.65L47.45 24.25L46.95 23.75L43.95 23.75L44.20 22Q46.55 22 49.33 21.92Q52.10 21.85 54.10 21.50L54.60 22L51.95 40.80Q51.70 42.55 52.08 43.15Q52.45 43.75 53.10 43.75Q53.85 43.75 54.48 43.15Q55.10 42.55 55.70 41.60ZM69.75 21.50L70.25 22L66.45 49.20Q65.95 52.80 64.45 54.95Q62.95 57.10 60.95 58.05Q58.95 59 56.85 59Q54.85 59 53.57 58.30Q52.30 57.60 51.72 56.52Q51.15 55.45 51.15 54.35Q51.15 52.65 52.22 51.52Q53.30 50.40 54.70 50.40Q55.95 50.40 56.77 51.25Q57.60 52.10 57.60 53.40Q57.60 54.50 56.98 55.42Q56.35 56.35 55.45 56.90Q55.65 57 55.85 57Q57.65 57 58.95 55.48Q60.25 53.95 60.67 51.42Q61.10 48.90 60.10 46L63.10 24.25L62.60 23.75L59.60 23.75L59.85 22Q62.20 22 64.97 21.92Q67.75 21.85 69.75 21.50M67.15 18.70Q65.50 18.70 64.60 17.57Q63.70 16.45 63.90 14.75Q64.15 13.05 65.30 11.77Q66.45 10.50 68.10 10.50Q69.75 10.50 70.65 11.63Q71.55 12.75 71.30 14.45Q71.10 16.15 69.97 17.42Q68.85 18.70 67.15 18.70ZM73.75 35.65Q73.75 32.45 74.77 29.85Q75.80 27.25 77.50 25.38Q79.20 23.50 81.27 22.50Q83.35 21.50 85.40 21.50Q87.35 21.50 88.67 22.27Q90 23.05 90.83 24.20Q91.65 25.35 91.95 26.45L94.30 22L99.05 22L96.40 40.80Q96.15 42.55 96.53 43.15Q96.90 43.75 97.55 43.75Q98.30 43.75 98.92 43.15Q99.55 42.55 100.15 41.60L101.65 42.50Q100.50 44.80 98.95 45.65Q97.40 46.50 95.50 46.50Q93.25 46.50 91.72 45.42Q90.20 44.35 89.80 42.35Q88.45 44.40 86.70 45.45Q84.95 46.50 82.75 46.50Q80.35 46.50 78.30 45.35Q76.25 44.20 75 41.80Q73.75 39.40 73.75 35.65M81.25 36.40Q81.25 40.20 82.33 41.98Q83.40 43.75 84.95 43.75Q86.65 43.75 87.97 42.02Q89.30 40.30 90.10 37.50Q90.90 34.70 90.90 31.55Q90.90 27.75 89.85 26Q88.80 24.25 87.20 24.25Q85.55 24.25 84.20 25.97Q82.85 27.70 82.05 30.45Q81.25 33.20 81.25 36.40ZM115.80 41.60L117.30 42.50Q116.15 44.80 114.60 45.65Q113.05 46.50 111.15 46.50Q108.25 46.50 106.60 44.75Q104.95 43 105.40 39.65L109.30 11.75L108.80 11.25L105.80 11.25L106.05 9.50Q108.40 9.50 111.17 9.42Q113.95 9.35 115.95 9L116.45 9.50L112.05 40.80Q111.80 42.55 112.17 43.15Q112.55 43.75 113.20 43.75Q113.95 43.75 114.57 43.15Q115.20 42.55 115.80 41.60Z"/></g></g></svg>